<?xml version="1.0" encoding="UTF-8"?>
<!DOCTYPE svg PUBLIC "-//W3C//DTD SVG 1.1//EN" "http://www.w3.org/Graphics/SVG/1.1/DTD/svg11.dtd">
<svg xmlns="http://www.w3.org/2000/svg" version="1.1" width="512px" height="512px" style="shape-rendering:geometricPrecision; text-rendering:geometricPrecision; image-rendering:optimizeQuality; fill-rule:evenodd; clip-rule:evenodd" xmlns:xlink="http://www.w3.org/1999/xlink">
<g><path style="opacity:0.996" fill="#35718a" d="M 298.5,53.5 C 292.797,64.0187 284.13,71.1854 272.5,75C 249.612,83.6379 225.945,88.9712 201.5,91C 150.495,96.5514 100.162,93.2181 50.5,81C 35.3314,77.3356 22.1648,70.1689 11,59.5C 10.059,57.2726 8.89232,55.2726 7.5,53.5C 7.31907,46.362 9.98573,40.5287 15.5,36C 26.1347,28.5593 37.8014,23.2259 50.5,20C 84.2579,11.2674 118.591,7.10076 153.5,7.5C 188.382,7.24605 222.716,11.4127 256.5,20C 268.394,23.1152 279.394,28.1152 289.5,35C 295.905,39.5551 298.905,45.7218 298.5,53.5 Z"/></g>
<g><path style="opacity:0.997" fill="#4184a8" d="M 7.5,53.5 C 8.89232,55.2726 10.059,57.2726 11,59.5C 22.1648,70.1689 35.3314,77.3356 50.5,81C 100.162,93.2181 150.495,96.5514 201.5,91C 225.945,88.9712 249.612,83.6379 272.5,75C 284.13,71.1854 292.797,64.0187 298.5,53.5C 298.5,76.1667 298.5,98.8333 298.5,121.5C 293.492,131.052 285.826,137.885 275.5,142C 252.297,150.87 228.297,156.537 203.5,159C 155.427,164.152 107.76,161.818 60.5,152C 43.6778,148.585 28.3445,141.918 14.5,132C 12.6113,129.618 10.9447,127.118 9.5,124.5C 9.06795,123.29 8.40128,122.29 7.5,121.5C 7.5,98.8333 7.5,76.1667 7.5,53.5 Z"/></g>
<g><path style="opacity:0.714" fill="#5dbf97" d="M 7.5,121.5 C 8.40128,122.29 9.06795,123.29 9.5,124.5C 8.50577,134.653 8.17244,144.986 8.5,155.5C 8.16667,155.5 7.83333,155.5 7.5,155.5C 7.5,144.167 7.5,132.833 7.5,121.5 Z"/></g>
<g><path style="opacity:1" fill="#6cdf8e" d="M 298.5,121.5 C 298.5,132.833 298.5,144.167 298.5,155.5C 295.496,162.678 290.496,168.178 283.5,172C 268.874,179.32 253.54,184.653 237.5,188C 182.882,197.656 128.215,197.989 73.5,189C 55.6899,185.73 38.6899,180.063 22.5,172C 15.4378,168.445 10.7711,162.945 8.5,155.5C 8.17244,144.986 8.50577,134.653 9.5,124.5C 10.9447,127.118 12.6113,129.618 14.5,132C 28.3445,141.918 43.6778,148.585 60.5,152C 107.76,161.818 155.427,164.152 203.5,159C 228.297,156.537 252.297,150.87 275.5,142C 285.826,137.885 293.492,131.052 298.5,121.5 Z"/></g>
<g><path style="opacity:0.997" fill="#4184a8" d="M 7.5,155.5 C 7.83333,155.5 8.16667,155.5 8.5,155.5C 10.7711,162.945 15.4378,168.445 22.5,172C 38.6899,180.063 55.6899,185.73 73.5,189C 128.215,197.989 182.882,197.656 237.5,188C 253.54,184.653 268.874,179.32 283.5,172C 290.496,168.178 295.496,162.678 298.5,155.5C 298.5,171.5 298.5,187.5 298.5,203.5C 268.887,214.808 244.554,233.142 225.5,258.5C 176.16,265.284 126.826,265.117 77.5,258C 55.6034,254.814 35.2701,247.481 16.5,236C 13.1517,233.499 10.8184,230.332 9.5,226.5C 9.01131,225.005 8.34464,223.671 7.5,222.5C 7.5,200.167 7.5,177.833 7.5,155.5 Z"/></g>
<g><path style="opacity:0.997" fill="#35718a" d="M 196.5,365.5 C 194.091,341.439 197.091,318.106 205.5,295.5C 210.36,282.108 217.027,269.775 225.5,258.5C 244.554,233.142 268.887,214.808 298.5,203.5C 364.931,184.227 421.431,199.894 468,250.5C 504.876,298.621 512.876,351.288 492,408.5C 461.055,473.238 409.555,504.738 337.5,503C 278.232,496.473 235.399,466.639 209,413.5C 202.014,398.224 197.848,382.224 196.5,365.5 Z"/></g>
<g><path style="opacity:0.714" fill="#5cbd97" d="M 7.5,222.5 C 8.34464,223.671 9.01131,225.005 9.5,226.5C 8.50558,236.987 8.17225,247.654 8.5,258.5C 8.16667,258.5 7.83333,258.5 7.5,258.5C 7.5,246.5 7.5,234.5 7.5,222.5 Z"/></g>
<g><path style="opacity:1" fill="#6cde8e" d="M 9.5,226.5 C 10.8184,230.332 13.1517,233.499 16.5,236C 35.2701,247.481 55.6034,254.814 77.5,258C 126.826,265.117 176.16,265.284 225.5,258.5C 217.027,269.775 210.36,282.108 205.5,295.5C 153.251,301.472 101.584,298.305 50.5,286C 35.3421,282.34 22.1755,275.174 11,264.5C 9.87803,262.593 9.04469,260.593 8.5,258.5C 8.17225,247.654 8.50558,236.987 9.5,226.5 Z"/></g>
<g><path style="opacity:0.994" fill="#4184a8" d="M 7.5,258.5 C 7.83333,258.5 8.16667,258.5 8.5,258.5C 9.04469,260.593 9.87803,262.593 11,264.5C 22.1755,275.174 35.3421,282.34 50.5,286C 101.584,298.305 153.251,301.472 205.5,295.5C 197.091,318.106 194.091,341.439 196.5,365.5C 164.459,367.222 132.459,366.722 100.5,364C 74.4349,361.722 49.4349,355.389 25.5,345C 17.6414,341.141 11.808,335.308 8,327.5C 7.50004,304.502 7.33337,281.502 7.5,258.5 Z"/></g>
<g><path style="opacity:1" fill="#fcfcfd" d="M 265.5,289.5 C 285.514,288.245 299.014,296.912 306,315.5C 306.667,319.167 306.667,322.833 306,326.5C 301.814,333.538 296.814,334.205 291,328.5C 290.687,315.86 284.354,308.527 272,306.5C 259.706,308.792 254.373,316.125 256,328.5C 257.769,333.935 261.269,337.768 266.5,340C 286.063,339.518 299.23,348.351 306,366.5C 308.96,387.511 300.46,401.345 280.5,408C 258.643,410.793 244.81,401.626 239,380.5C 236.666,373.046 239.166,368.379 246.5,366.5C 249.191,366.679 251.525,367.679 253.5,369.5C 254.837,374.932 256.67,380.265 259,385.5C 265.915,392.103 273.748,393.27 282.5,389C 291.705,379.562 291.705,370.229 282.5,361C 276.537,358.082 270.204,356.749 263.5,357C 245.007,349.861 236.84,336.361 239,316.5C 243.351,302.984 252.184,293.984 265.5,289.5 Z"/></g>
<g><path style="opacity:1" fill="#fbfcfc" d="M 351.5,289.5 C 370.976,288.142 384.143,296.475 391,314.5C 392.622,336.116 392.955,357.783 392,379.5C 390.798,383.605 389.298,387.605 387.5,391.5C 391.678,395.913 392.511,400.913 390,406.5C 384.408,410.69 379.408,410.023 375,404.5C 358.972,411.803 344.639,409.47 332,397.5C 328.612,393.391 326.279,388.725 325,383.5C 323.377,361.551 323.044,339.551 324,317.5C 328.016,302.985 337.183,293.652 351.5,289.5 Z"/></g>
<g><path style="opacity:1" fill="#fdfdfd" d="M 425.5,295.5 C 425.5,327.833 425.5,360.167 425.5,392.5C 434.833,392.5 444.167,392.5 453.5,392.5C 460.147,394.681 461.98,399.015 459,405.5C 457.421,407.041 455.587,408.208 453.5,409C 440.833,409.667 428.167,409.667 415.5,409C 413.376,407.878 411.543,406.378 410,404.5C 409.333,367.833 409.333,331.167 410,294.5C 413.013,289.465 417.18,288.298 422.5,291C 424.141,292.129 425.141,293.629 425.5,295.5 Z"/></g>
<g><path style="opacity:1" fill="#b4cad3" d="M 425.5,295.5 C 426.498,327.329 426.832,359.329 426.5,391.5C 435.682,391.173 444.682,391.507 453.5,392.5C 444.167,392.5 434.833,392.5 425.5,392.5C 425.5,360.167 425.5,327.833 425.5,295.5 Z"/></g>
<g><path style="opacity:1" fill="#38738b" d="M 374.5,320.5 C 374.83,337.342 374.497,354.008 373.5,370.5C 368.788,365.189 363.955,365.189 359,370.5C 358.333,373.5 358.333,376.5 359,379.5C 361.416,382.663 363.582,385.996 365.5,389.5C 352.957,394.479 344.79,390.479 341,377.5C 340.333,358.167 340.333,338.833 341,319.5C 347.411,306.035 356.911,303.201 369.5,311C 372.278,313.603 373.944,316.77 374.5,320.5 Z"/></g>
<g><path style="opacity:1" fill="#a3bec9" d="M 374.5,320.5 C 375.662,337.662 375.829,354.995 375,372.5C 374.283,371.956 373.783,371.289 373.5,370.5C 374.497,354.008 374.83,337.342 374.5,320.5 Z"/></g>
</svg>
