<?xml version="1.0" standalone="no"?>
<!DOCTYPE svg PUBLIC "-//W3C//DTD SVG 20010904//EN"
 "http://www.w3.org/TR/2001/REC-SVG-20010904/DTD/svg10.dtd">
<svg version="1.0" xmlns="http://www.w3.org/2000/svg"
 width="866.000000pt" height="650.000000pt" viewBox="0 0 866.000000 650.000000"
 preserveAspectRatio="xMidYMid meet">

<g transform="translate(0.000000,650.000000) scale(0.100000,-0.100000)"
fill="#000000" stroke="none">
<path d="M3920 5140 c-276 -28 -573 -87 -760 -151 -30 -10 -52 -18 -48 -19 4
0 54 -13 110 -30 362 -104 752 -148 1213 -136 311 7 502 28 760 81 126 26 360
94 352 101 -7 8 -184 54 -322 85 -261 59 -391 71 -825 74 -217 2 -433 -1 -480
-5z"/>
<path d="M6352 5113 c-34 -113 -180 -243 -386 -343 -749 -365 -2230 -400
-3104 -75 -271 101 -471 246 -537 387 l-25 53 0 -1952 0 -1952 22 -58 c29 -78
150 -199 268 -268 407 -238 1106 -370 1865 -352 273 7 483 24 694 57 632 98
1074 302 1189 547 l27 58 3 1575 c3 2060 1 2378 -16 2323z m-2907 -1539 c60
-8 149 -35 157 -47 7 -12 9 -234 1 -253 -4 -10 -16 -8 -55 12 -71 36 -132 53
-213 60 -86 8 -144 -7 -190 -47 -31 -28 -35 -37 -35 -81 0 -85 28 -116 170
-185 187 -91 298 -182 342 -280 32 -73 37 -220 9 -294 -35 -91 -72 -134 -151
-174 -105 -53 -176 -69 -308 -67 -129 1 -199 13 -289 49 l-63 25 0 149 c0 82
2 149 5 149 2 0 29 -18 60 -39 86 -61 171 -86 285 -86 81 0 100 3 131 22 42
26 59 59 59 112 0 68 -55 114 -251 211 -152 74 -228 140 -277 239 -23 49 -27
68 -27 146 0 76 4 99 26 145 46 98 114 159 229 206 95 38 235 49 385 28z
m1135 -20 c206 -48 361 -195 451 -429 121 -314 -10 -687 -290 -823 l-80 -39
97 -84 c53 -46 124 -109 157 -140 33 -31 76 -70 95 -87 l35 -31 -197 -1 -196
0 -134 155 c-115 134 -138 156 -168 160 -158 25 -263 68 -362 148 -74 61 -147
171 -182 277 -24 69 -30 107 -34 205 -5 143 17 254 75 375 71 148 241 278 413
314 87 19 240 19 320 0z m998 -526 l2 -538 245 0 245 0 0 -120 0 -120 -395 0
-395 0 0 660 0 661 148 -3 147 -3 3 -537z"/>
<path d="M4321 3329 c-105 -31 -186 -125 -226 -263 -27 -93 -17 -279 20 -369
57 -140 157 -212 295 -211 168 1 280 105 320 299 17 79 7 242 -19 317 -25 72
-80 159 -119 187 -67 47 -184 64 -271 40z"/>
</g>
</svg>
